<svg width="60" height="77" viewBox="0 0 60 77" fill="none" xmlns="http://www.w3.org/2000/svg">
<path d="M21.5 0L25.7614 6.13131L31.4645 1.31186L33.9939 8.33718L40.75 5.15802L41.3748 12.5986L48.7236 11.2764L47.4014 18.6252L54.842 19.25L51.6628 26.0062L58.6881 28.5355L53.8687 34.2386L60 38.5L53.8687 42.7614L58.6881 48.4645L51.6628 50.9939L54.842 57.75L47.4014 58.3748L48.7236 65.7236L41.3748 64.4014L40.75 71.842L33.9939 68.6628L31.4645 75.6881L25.7614 70.8687L21.5 77L17.2386 70.8687L11.5355 75.6881L9.00615 68.6628L2.25 71.842L1.62516 64.4014L-5.72361 65.7236L-4.4014 58.3748L-11.842 57.75L-8.66282 50.9939L-15.6881 48.4645L-10.8687 42.7614L-17 38.5L-10.8687 34.2386L-15.6881 28.5355L-8.66282 26.0062L-11.842 19.25L-4.4014 18.6252L-5.72361 11.2764L1.62516 12.5986L2.25 5.15802L9.00615 8.33718L11.5355 1.31186L17.2386 6.13131L21.5 0Z" fill="#ED635A"/>
</svg>
