<svg width="113" height="100" viewBox="0 0 113 100" fill="none" xmlns="http://www.w3.org/2000/svg">
<path d="M45.5 0L52.9713 10.7497L62.9703 2.3L67.4048 14.6171L79.25 9.04329L80.3455 22.0885L93.2297 19.7703L90.9115 32.6545L103.957 33.75L98.3829 45.5952L110.7 50.0297L102.25 60.0287L113 67.5L102.25 74.9713L110.7 84.9703L98.3829 89.4048L103.957 101.25L90.9115 102.346L93.2297 115.23L80.3455 112.912L79.25 125.957L67.4048 120.383L62.9703 132.7L52.9713 124.25L45.5 135L38.0287 124.25L28.0297 132.7L23.5952 120.383L11.75 125.957L10.6545 112.912L-2.22971 115.23L0.0884552 102.346L-12.9567 101.25L-7.38286 89.4048L-19.7 84.9703L-11.2503 74.9713L-22 67.5L-11.2503 60.0287L-19.7 50.0297L-7.38286 45.5952L-12.9567 33.75L0.0884552 32.6545L-2.22971 19.7703L10.6545 22.0885L11.75 9.04329L23.5952 14.6171L28.0297 2.3L38.0287 10.7497L45.5 0Z" fill="#ED635A"/>
</svg>
