<svg width="34" height="34" viewBox="0 0 34 34" fill="none" xmlns="http://www.w3.org/2000/svg">
<g filter="url(#filter0_d_4863_9893)">
<path d="M9.76687 23.5248C9.3072 22.9338 8.73262 21.7354 7.73119 20.2415C7.15661 19.4206 5.74477 17.861 5.31793 17.0566C5.01023 16.5678 4.92095 15.9725 5.07168 15.4149C5.32936 14.3547 6.33505 13.6515 7.41928 13.7732C8.25785 13.9417 9.02849 14.3527 9.63554 14.9553C10.0594 15.3545 10.4493 15.7883 10.8011 16.2522C11.0638 16.5805 11.1295 16.7118 11.425 17.0894C11.7205 17.467 11.9175 17.8446 11.7697 17.2864C11.6548 16.4656 11.4578 15.0866 11.1787 13.8553C10.9653 12.9196 10.916 12.7718 10.719 12.0659C10.522 11.36 10.4071 10.769 10.1937 9.96456C9.99862 9.17421 9.84519 8.37415 9.73404 7.56771C9.52711 6.53625 9.67766 5.46507 10.1609 4.5306C10.7345 3.9911 11.5759 3.84871 12.2951 4.16944C13.0184 4.70353 13.5577 5.44937 13.8382 6.30362C14.2685 7.35493 14.5556 8.45924 14.6919 9.58697C14.9546 11.2286 15.4635 13.6255 15.4799 14.118C15.4799 13.5106 15.365 12.2301 15.4799 11.6555C15.5938 11.0565 16.0101 10.5594 16.5798 10.3421C17.0687 10.1921 17.5859 10.1584 18.0902 10.2436C18.5992 10.35 19.05 10.6428 19.3543 11.0645C19.7346 12.0222 19.9457 13.0388 19.9781 14.0687C20.0221 13.1668 20.1764 12.2736 20.4378 11.4092C20.7121 11.0227 21.1127 10.744 21.5705 10.6212C22.1133 10.522 22.6695 10.522 23.2122 10.6212C23.6573 10.77 24.0466 11.0506 24.3285 11.4256C24.6762 12.2963 24.8867 13.2156 24.9524 14.1508C24.9524 14.3807 25.0673 13.5106 25.4285 12.936C25.6162 12.3788 26.0868 11.9641 26.6632 11.848C27.2396 11.732 27.8341 11.9322 28.2228 12.3733C28.6115 12.8145 28.7353 13.4295 28.5477 13.9867C28.5477 15.0538 28.5477 15.0045 28.5477 15.7268C28.5477 16.4492 28.5477 17.0894 28.5477 17.6969C28.4878 18.6575 28.3561 19.6124 28.1537 20.5534C27.868 21.3859 27.4703 22.1757 26.9716 22.901C26.1745 23.7874 25.5159 24.7892 25.0181 25.8724C24.8945 26.4106 24.8394 26.9621 24.8539 27.5141C24.8522 28.024 24.9185 28.532 25.0509 29.0244C24.3797 29.0954 23.7028 29.0954 23.0316 29.0244C22.3914 28.9259 21.6034 27.6454 21.3899 27.2514C21.2844 27.0399 21.0682 26.9062 20.8318 26.9062C20.5953 26.9062 20.3792 27.0399 20.2736 27.2514C19.9124 27.8753 19.108 29.008 18.5498 29.0737C17.4499 29.205 15.1844 29.0737 13.395 29.0737C13.395 29.0737 13.6905 27.432 13.0174 26.841C12.3443 26.25 11.6548 25.5605 11.1459 25.1008L9.76687 23.5248Z" fill="white"/>
<path fill-rule="evenodd" clip-rule="evenodd" d="M9.76687 23.5248C9.3072 22.9338 8.73262 21.7354 7.73119 20.2415C7.15661 19.4206 5.74477 17.861 5.31793 17.0566C5.01023 16.5678 4.92095 15.9725 5.07168 15.4149C5.32936 14.3547 6.33505 13.6515 7.41928 13.7732C8.25785 13.9417 9.02849 14.3527 9.63554 14.9553C10.0594 15.3545 10.4493 15.7883 10.8011 16.2522C11.0638 16.5805 11.1295 16.7118 11.425 17.0894C11.7205 17.467 11.9175 17.8446 11.7697 17.2864C11.6548 16.4656 11.4578 15.0866 11.1787 13.8553C10.9653 12.9196 10.916 12.7718 10.719 12.0659C10.522 11.36 10.4071 10.769 10.1937 9.96456C9.99862 9.17421 9.84519 8.37415 9.73404 7.56771C9.52711 6.53625 9.67766 5.46507 10.1609 4.5306C10.7345 3.9911 11.5759 3.84871 12.2951 4.16944C13.0184 4.70353 13.5577 5.44937 13.8382 6.30362C14.2685 7.35493 14.5556 8.45924 14.6919 9.58697C14.9546 11.2286 15.4635 13.6255 15.4799 14.118C15.4799 13.5106 15.365 12.2301 15.4799 11.6555C15.5938 11.0565 16.0101 10.5594 16.5798 10.3421C17.0687 10.1921 17.5859 10.1584 18.0902 10.2436C18.5992 10.35 19.05 10.6428 19.3543 11.0645C19.7346 12.0222 19.9457 13.0388 19.9781 14.0687C20.0221 13.1668 20.1764 12.2736 20.4378 11.4092C20.7121 11.0227 21.1127 10.744 21.5705 10.6212C22.1133 10.522 22.6695 10.522 23.2122 10.6212C23.6573 10.77 24.0466 11.0506 24.3285 11.4256C24.6762 12.2963 24.8867 13.2156 24.9524 14.1508C24.9524 14.3807 25.0673 13.5106 25.4285 12.936C25.6162 12.3788 26.0868 11.9641 26.6632 11.848C27.2396 11.732 27.8341 11.9322 28.2228 12.3733C28.6115 12.8145 28.7353 13.4295 28.5477 13.9867C28.5477 15.0538 28.5477 15.0045 28.5477 15.7268C28.5477 16.4492 28.5477 17.0894 28.5477 17.6969C28.4878 18.6575 28.3561 19.6124 28.1537 20.5534C27.868 21.3859 27.4703 22.1757 26.9716 22.901C26.1745 23.7874 25.5159 24.7892 25.0181 25.8724C24.8945 26.4106 24.8394 26.9621 24.8539 27.5141C24.8522 28.024 24.9185 28.532 25.0509 29.0244C24.3797 29.0954 23.7028 29.0954 23.0316 29.0244C22.3914 28.9259 21.6034 27.6454 21.3899 27.2514C21.2844 27.0399 21.0682 26.9062 20.8318 26.9062C20.5953 26.9062 20.3792 27.0399 20.2736 27.2514C19.9124 27.8753 19.108 29.008 18.5498 29.0737C17.4499 29.205 15.1844 29.0737 13.395 29.0737C13.395 29.0737 13.6905 27.432 13.0174 26.841C12.3443 26.25 11.6548 25.5605 11.1459 25.1008L9.76687 23.5248Z" stroke="#202125" stroke-width="0.75" stroke-linecap="round" stroke-linejoin="round"/>
<path d="M23.688 24.4215V18.7548C23.688 18.4156 23.4124 18.1406 23.0724 18.1406C22.7324 18.1406 22.4568 18.4156 22.4568 18.7548V24.4215C22.4568 24.7607 22.7324 25.0357 23.0724 25.0357C23.4124 25.0357 23.688 24.7607 23.688 24.4215Z" fill="#202125"/>
<path d="M20.4377 24.4194L20.4048 18.7498C20.4029 18.4114 20.1257 18.1387 19.7857 18.1406C19.4457 18.1426 19.1716 18.4185 19.1736 18.7569L19.2064 24.4265C19.2084 24.7649 19.4856 25.0376 19.8256 25.0357C20.1656 25.0337 20.4396 24.7578 20.4377 24.4194Z" fill="#202125"/>
<path d="M15.8901 18.7628L15.923 24.4207C15.925 24.7623 16.2022 25.0376 16.5422 25.0357C16.8822 25.0337 17.1562 24.7551 17.1542 24.4135L17.1214 18.7556C17.1194 18.414 16.8422 18.1386 16.5022 18.1406C16.1622 18.1426 15.8882 18.4212 15.8901 18.7628Z" fill="#202125"/>
</g>
<defs>
<filter id="filter0_d_4863_9893" x="3.825" y="3.625" width="25.9838" height="27.6828" filterUnits="userSpaceOnUse" color-interpolation-filters="sRGB">
<feFlood flood-opacity="0" result="BackgroundImageFix"/>
<feColorMatrix in="SourceAlpha" type="matrix" values="0 0 0 0 0 0 0 0 0 0 0 0 0 0 0 0 0 0 127 0" result="hardAlpha"/>
<feOffset dy="1"/>
<feGaussianBlur stdDeviation="0.4"/>
<feColorMatrix type="matrix" values="0 0 0 0 0 0 0 0 0 0 0 0 0 0 0 0 0 0 0.5 0"/>
<feBlend mode="normal" in2="BackgroundImageFix" result="effect1_dropShadow_4863_9893"/>
<feBlend mode="normal" in="SourceGraphic" in2="effect1_dropShadow_4863_9893" result="shape"/>
</filter>
</defs>
</svg>
